<?xml version="1.0" encoding="UTF-8"?>
<svg id="Layer_1" data-name="Layer 1" xmlns="http://www.w3.org/2000/svg" viewBox="0 0 770.8 770.8">
  <defs>
    <style>
      .cls-1 {
        fill: #ca3334;
      }

      .cls-1, .cls-2, .cls-3 {
        stroke-width: 0px;
      }

      .cls-2 {
        fill: #881514;
      }

      .cls-3 {
        fill: #550d07;
      }
    </style>
  </defs>
  <rect class="cls-1" x="362.73" width="45.34" height="45.34"/>
  <rect class="cls-1" x="317.39" y="45.34" width="45.34" height="45.34"/>
  <rect class="cls-2" x="362.73" y="45.34" width="45.34" height="45.34"/>
  <rect class="cls-1" x="408.07" y="45.34" width="45.34" height="45.34"/>
  <rect class="cls-2" x="90.68" y="90.68" width="45.34" height="45.34"/>
  <rect class="cls-2" x="226.71" y="90.68" width="45.34" height="45.34"/>
  <rect class="cls-1" x="362.73" y="90.68" width="45.34" height="45.34"/>
  <rect class="cls-2" x="498.75" y="90.68" width="45.34" height="45.34"/>
  <rect class="cls-2" x="634.77" y="90.68" width="45.34" height="45.34"/>
  <rect class="cls-3" x="136.02" y="136.02" width="45.34" height="45.34"/>
  <rect class="cls-1" x="181.36" y="136.02" width="45.34" height="45.34"/>
  <rect class="cls-1" x="226.71" y="136.02" width="45.34" height="45.34"/>
  <rect class="cls-2" x="272.05" y="136.02" width="45.34" height="45.34"/>
  <rect class="cls-2" x="453.41" y="136.02" width="45.34" height="45.34"/>
  <rect class="cls-1" x="498.75" y="136.02" width="45.34" height="45.34"/>
  <rect class="cls-1" x="544.09" y="136.02" width="45.34" height="45.34"/>
  <rect class="cls-3" x="589.43" y="136.02" width="45.34" height="45.34"/>
  <rect class="cls-1" x="136.02" y="181.36" width="45.34" height="45.34"/>
  <rect class="cls-3" x="181.36" y="181.36" width="45.34" height="45.34"/>
  <rect class="cls-1" x="226.71" y="181.36" width="45.34" height="45.34"/>
  <rect class="cls-2" x="272.05" y="181.36" width="45.34" height="45.34"/>
  <rect class="cls-2" x="317.39" y="181.36" width="45.34" height="45.34"/>
  <rect class="cls-2" x="408.07" y="181.36" width="45.34" height="45.34"/>
  <rect class="cls-2" x="453.41" y="181.36" width="45.34" height="45.34"/>
  <rect class="cls-1" x="498.75" y="181.36" width="45.34" height="45.34"/>
  <rect class="cls-3" x="544.09" y="181.36" width="45.34" height="45.34"/>
  <rect class="cls-1" x="589.43" y="181.36" width="45.34" height="45.34"/>
  <rect class="cls-2" x="90.68" y="226.71" width="45.34" height="45.34"/>
  <rect class="cls-1" x="136.02" y="226.71" width="45.34" height="45.34"/>
  <rect class="cls-1" x="181.36" y="226.71" width="45.34" height="45.34"/>
  <rect class="cls-3" x="226.71" y="226.71" width="45.34" height="45.34"/>
  <rect class="cls-2" x="272.05" y="226.71" width="45.34" height="45.34"/>
  <rect class="cls-2" x="317.39" y="226.71" width="45.34" height="45.34"/>
  <rect class="cls-2" x="408.07" y="226.71" width="45.34" height="45.34"/>
  <rect class="cls-2" x="453.41" y="226.71" width="45.34" height="45.34"/>
  <rect class="cls-3" x="498.75" y="226.71" width="45.34" height="45.34"/>
  <rect class="cls-1" x="544.09" y="226.71" width="45.34" height="45.34"/>
  <rect class="cls-1" x="589.43" y="226.71" width="45.34" height="45.34"/>
  <rect class="cls-2" x="634.77" y="226.71" width="45.34" height="45.34"/>
  <rect class="cls-2" x="136.02" y="272.05" width="45.34" height="45.34"/>
  <rect class="cls-2" x="181.36" y="272.05" width="45.34" height="45.34"/>
  <rect class="cls-2" x="226.71" y="272.05" width="45.34" height="45.34"/>
  <rect class="cls-3" x="272.05" y="272.05" width="45.34" height="45.34"/>
  <rect class="cls-2" x="317.39" y="272.05" width="45.34" height="45.34"/>
  <rect class="cls-3" x="362.73" y="272.05" width="45.34" height="45.34"/>
  <rect class="cls-2" x="408.07" y="272.05" width="45.34" height="45.34"/>
  <rect class="cls-3" x="453.41" y="272.05" width="45.34" height="45.34"/>
  <rect class="cls-2" x="498.75" y="272.05" width="45.34" height="45.34"/>
  <rect class="cls-2" x="544.09" y="272.05" width="45.34" height="45.34"/>
  <rect class="cls-2" x="589.43" y="272.05" width="45.34" height="45.34"/>
  <rect class="cls-1" x="45.34" y="317.39" width="45.34" height="45.34"/>
  <rect class="cls-2" x="181.36" y="317.39" width="45.34" height="45.34"/>
  <rect class="cls-2" x="226.71" y="317.39" width="45.34" height="45.34"/>
  <rect class="cls-2" x="272.05" y="317.39" width="45.34" height="45.34"/>
  <rect class="cls-3" x="317.39" y="317.39" width="45.34" height="45.34"/>
  <rect class="cls-1" x="362.73" y="317.39" width="45.34" height="45.34"/>
  <rect class="cls-3" x="408.07" y="317.39" width="45.34" height="45.34"/>
  <rect class="cls-2" x="453.41" y="317.39" width="45.34" height="45.34"/>
  <rect class="cls-2" x="498.75" y="317.39" width="45.34" height="45.34"/>
  <rect class="cls-2" x="544.09" y="317.39" width="45.34" height="45.34"/>
  <rect class="cls-1" x="680.12" y="317.39" width="45.34" height="45.34"/>
  <rect class="cls-1" y="362.73" width="45.34" height="45.34"/>
  <rect class="cls-3" x="45.34" y="362.73" width="45.34" height="45.34"/>
  <rect class="cls-1" x="90.68" y="362.73" width="45.34" height="45.34"/>
  <rect class="cls-3" x="272.05" y="362.73" width="45.34" height="45.34"/>
  <rect class="cls-1" x="317.39" y="362.73" width="45.34" height="45.34"/>
  <rect class="cls-1" x="408.07" y="362.73" width="45.34" height="45.34"/>
  <rect class="cls-3" x="453.41" y="362.73" width="45.34" height="45.34"/>
  <rect class="cls-1" x="634.77" y="362.73" width="45.34" height="45.34"/>
  <rect class="cls-2" x="680.12" y="362.73" width="45.34" height="45.34"/>
  <rect class="cls-1" x="725.46" y="362.73" width="45.34" height="45.34"/>
  <rect class="cls-1" x="45.34" y="408.07" width="45.34" height="45.34"/>
  <rect class="cls-2" x="181.36" y="408.07" width="45.34" height="45.34"/>
  <rect class="cls-2" x="226.71" y="408.07" width="45.34" height="45.34"/>
  <rect class="cls-2" x="272.05" y="408.07" width="45.34" height="45.34"/>
  <rect class="cls-3" x="317.39" y="408.07" width="45.34" height="45.34"/>
  <rect class="cls-1" x="362.73" y="408.07" width="45.34" height="45.34"/>
  <rect class="cls-2" x="362.73" y="362.73" width="45.34" height="45.34"/>
  <rect class="cls-3" x="408.07" y="408.07" width="45.34" height="45.34"/>
  <rect class="cls-2" x="453.41" y="408.07" width="45.34" height="45.34"/>
  <rect class="cls-2" x="498.75" y="408.07" width="45.34" height="45.34"/>
  <rect class="cls-2" x="544.09" y="408.07" width="45.34" height="45.34"/>
  <rect class="cls-1" x="680.12" y="408.07" width="45.34" height="45.34"/>
  <rect class="cls-2" x="136.02" y="453.41" width="45.34" height="45.34"/>
  <rect class="cls-2" x="181.36" y="453.41" width="45.34" height="45.34"/>
  <rect class="cls-2" x="226.71" y="453.41" width="45.34" height="45.34"/>
  <rect class="cls-3" x="272.05" y="453.41" width="45.34" height="45.34"/>
  <rect class="cls-2" x="317.39" y="453.41" width="45.34" height="45.34"/>
  <rect class="cls-3" x="362.73" y="453.41" width="45.34" height="45.34"/>
  <rect class="cls-2" x="408.07" y="453.41" width="45.34" height="45.34"/>
  <rect class="cls-3" x="453.41" y="453.41" width="45.34" height="45.34"/>
  <rect class="cls-2" x="498.75" y="453.41" width="45.34" height="45.34"/>
  <rect class="cls-2" x="544.09" y="453.41" width="45.34" height="45.34"/>
  <rect class="cls-2" x="589.43" y="453.41" width="45.34" height="45.34"/>
  <rect class="cls-2" x="90.68" y="498.75" width="45.34" height="45.34"/>
  <rect class="cls-1" x="136.02" y="498.75" width="45.34" height="45.34"/>
  <rect class="cls-1" x="181.36" y="498.75" width="45.34" height="45.34"/>
  <rect class="cls-3" x="226.71" y="498.75" width="45.34" height="45.34"/>
  <rect class="cls-2" x="272.05" y="498.75" width="45.34" height="45.34"/>
  <rect class="cls-2" x="317.39" y="498.75" width="45.34" height="45.34"/>
  <rect class="cls-2" x="408.07" y="498.75" width="45.34" height="45.34"/>
  <rect class="cls-2" x="453.41" y="498.75" width="45.34" height="45.34"/>
  <rect class="cls-3" x="498.75" y="498.75" width="45.34" height="45.34"/>
  <rect class="cls-1" x="544.09" y="498.75" width="45.34" height="45.34"/>
  <rect class="cls-1" x="589.43" y="498.75" width="45.34" height="45.34"/>
  <rect class="cls-2" x="634.77" y="498.75" width="45.34" height="45.34"/>
  <rect class="cls-1" x="136.02" y="544.09" width="45.34" height="45.34"/>
  <rect class="cls-3" x="181.36" y="544.09" width="45.34" height="45.34"/>
  <rect class="cls-1" x="226.71" y="544.09" width="45.34" height="45.34"/>
  <rect class="cls-2" x="272.05" y="544.09" width="45.34" height="45.34"/>
  <rect class="cls-2" x="317.39" y="544.09" width="45.34" height="45.34"/>
  <rect class="cls-2" x="408.07" y="544.09" width="45.34" height="45.34"/>
  <rect class="cls-2" x="453.41" y="544.09" width="45.34" height="45.34"/>
  <rect class="cls-1" x="498.75" y="544.09" width="45.34" height="45.34"/>
  <rect class="cls-3" x="544.09" y="544.09" width="45.34" height="45.34"/>
  <rect class="cls-1" x="589.43" y="544.09" width="45.34" height="45.34"/>
  <rect class="cls-3" x="136.02" y="589.43" width="45.34" height="45.34"/>
  <rect class="cls-1" x="181.36" y="589.43" width="45.34" height="45.34"/>
  <rect class="cls-1" x="226.71" y="589.43" width="45.34" height="45.34"/>
  <rect class="cls-2" x="272.05" y="589.43" width="45.34" height="45.34"/>
  <rect class="cls-2" x="453.41" y="589.43" width="45.34" height="45.34"/>
  <rect class="cls-1" x="498.75" y="589.43" width="45.34" height="45.34"/>
  <rect class="cls-1" x="544.09" y="589.43" width="45.34" height="45.34"/>
  <rect class="cls-3" x="589.43" y="589.43" width="45.34" height="45.34"/>
  <rect class="cls-2" x="90.68" y="634.77" width="45.34" height="45.34"/>
  <rect class="cls-2" x="226.71" y="634.77" width="45.34" height="45.34"/>
  <rect class="cls-1" x="362.73" y="634.77" width="45.34" height="45.34"/>
  <rect class="cls-2" x="498.75" y="634.77" width="45.34" height="45.34"/>
  <rect class="cls-2" x="634.77" y="634.77" width="45.34" height="45.34"/>
  <rect class="cls-1" x="317.39" y="680.12" width="45.34" height="45.34"/>
  <rect class="cls-2" x="362.73" y="680.12" width="45.34" height="45.34"/>
  <rect class="cls-1" x="408.07" y="680.12" width="45.34" height="45.34"/>
  <rect class="cls-1" x="362.73" y="725.46" width="45.34" height="45.34"/>
</svg>